<?xml version="1.0" encoding="utf-8"?>
<svg width="24px" height="24px" viewBox="0 0 24 24" version="1.1" xmlns:xlink="http://www.w3.org/1999/xlink" xmlns="http://www.w3.org/2000/svg">
  <desc>Created with Lunacy</desc>
  <g id="refresh3">
    <path d="M0 0L24 0L24 24L0 24L0 0Z" id="Background" fill="none" stroke="none" />
    <g id="Group" transform="translate(3.999939 4)">
      <g id="Group">
        <path d="M15.888 7.35593C15.8339 7.01689 15.5152 6.78593 15.1762 6.84002C14.8371 6.89411 14.6062 7.21282 14.6603 7.55186C14.6608 7.55558 14.6615 7.55926 14.6621 7.56293C15.2952 11.2896 12.7873 14.8238 9.06072 15.4568C5.33409 16.0899 1.79989 13.5821 1.16683 9.85542C0.533772 6.12879 3.04164 2.59459 6.76823 1.96153C9.06003 1.57223 11.3928 2.37277 12.9626 4.08731L10.2087 5.00484C9.88289 5.11324 9.70671 5.46517 9.81507 5.79095C9.81511 5.79103 9.81514 5.79114 9.81518 5.79121C9.92358 6.11699 10.2755 6.29318 10.6013 6.18481C10.6014 6.18478 10.6015 6.18474 10.6015 6.18474L14.3314 4.94146C14.5854 4.85688 14.7567 4.61921 14.7566 4.35153L14.7566 0.621658C14.7566 0.27832 14.4783 0 14.135 0C13.7916 0 13.5133 0.27832 13.5133 0.621657L13.5133 2.89251C10.3119 -0.152437 5.2482 -0.02557 2.20325 3.17585C-0.841691 6.37728 -0.714861 11.441 2.4866 14.486C5.68806 17.5309 10.7517 17.4041 13.7967 14.2026C15.533 12.377 16.3079 9.84016 15.888 7.35593L15.888 7.35593Z" id="Shape" fill="#FFFFFF" stroke="none" />
      </g>
    </g>
  </g>
</svg>