<?xml version="1.0" encoding="utf-8"?>
<svg width="24px" height="24px" viewBox="0 0 24 24" version="1.1" xmlns:xlink="http://www.w3.org/1999/xlink" xmlns="http://www.w3.org/2000/svg">
  <desc>Created with Lunacy</desc>
  <g id="settings-(2)">
    <path d="M0 0L24 0L24 24L0 24L0 0Z" id="Background" fill="none" stroke="none" />
    <g id="Group" transform="translate(1.839417 2.540146)">
      <path d="M9.55797 19.0354L10.838 19.0354C11.8734 19.0354 12.7157 18.2493 12.7157 17.2831L12.7157 16.879C13.1558 16.7477 13.5834 16.582 13.9943 16.3836L14.3009 16.6698C15.0428 17.363 16.2331 17.3461 16.9565 16.67L17.8613 15.8256C18.5846 15.1513 18.6051 14.0404 17.8616 13.3471L17.5547 13.0607C17.7673 12.6773 17.9447 12.2782 18.0854 11.8674L18.5184 11.8674C19.5537 11.8674 20.396 11.0813 20.396 10.115L20.396 8.92035C20.396 7.95412 19.5537 7.16802 18.5184 7.16802L18.0854 7.16802C17.9447 6.75716 17.7673 6.35812 17.5547 5.9747L17.8613 5.6885C18.6053 4.99486 18.5845 3.884 17.8616 3.20999L16.9568 2.36567C16.2351 1.69121 15.0445 1.67084 14.3012 2.36541L13.9943 2.65183C13.5834 2.45341 13.1558 2.28774 12.7157 2.1565L12.7157 1.75233C12.7157 0.786103 11.8734 0 10.8381 0L9.55802 0C8.52268 0 7.68038 0.786103 7.68038 1.75233L7.68038 2.15647C7.24024 2.28774 6.8126 2.45341 6.40177 2.65179L6.09515 2.36563C5.35328 1.67248 4.1629 1.68935 3.43952 2.36541L2.53473 3.20981C1.81142 3.88411 1.79091 4.99508 2.53449 5.68831L2.84138 5.9747C2.62878 6.35812 2.45131 6.7572 2.31065 7.16802L1.87763 7.16802C0.842333 7.16802 0 7.95412 0 8.92035L0 10.115C0 11.0813 0.842333 11.8674 1.87759 11.8674L2.31061 11.8674C2.45127 12.2782 2.62874 12.6773 2.84134 13.0607L2.53469 13.3469C1.79067 14.0405 1.81146 15.1514 2.53445 15.8254L3.43916 16.6697C4.16087 17.3442 5.35153 17.3646 6.09483 16.67L6.40173 16.3836C6.81256 16.582 7.2402 16.7477 7.68034 16.8789L7.68034 17.2831C7.68034 18.2493 8.52268 19.0354 9.55797 19.0354ZM8.42723 15.9196C7.78651 15.7653 7.17224 15.5273 6.60151 15.2123C6.31258 15.0528 6.01687 15.1654 5.87474 15.298L5.24955 15.8815C4.9797 16.1337 4.54692 16.1265 4.28452 15.8813L3.37925 15.0364C3.11637 14.7913 3.10932 14.3876 3.37949 14.1357L4.00448 13.5524C4.19736 13.3724 4.23513 13.0934 4.0963 12.8742C3.75881 12.3416 3.50382 11.7683 3.33846 11.1703C3.27034 10.9241 3.0324 10.752 2.75988 10.752L1.87763 10.752C1.5013 10.752 1.19508 10.4663 1.19508 10.115L1.19508 8.92034C1.19508 8.56912 1.5013 8.28336 1.87763 8.28332L2.75992 8.28332C3.0324 8.28332 3.27038 8.1113 3.3385 7.86503C3.50386 7.26701 3.75881 6.69372 4.09634 6.1611C4.23517 5.94197 4.1974 5.66291 4.00452 5.48289L3.37929 4.89937C3.10856 4.64701 3.11733 4.24313 3.37953 3.99872L4.28488 3.1538C4.54768 2.90813 4.98042 2.90229 5.24987 3.15407L5.87482 3.73736C6.0677 3.91738 6.36667 3.95262 6.60155 3.82306C7.17228 3.50804 7.78655 3.27006 8.42727 3.11573C8.69114 3.0522 8.87551 2.83009 8.87551 2.57575L8.87551 1.75232C8.87551 1.4011 9.18172 1.11534 9.55806 1.11534L10.8381 1.11534C11.2144 1.11534 11.5207 1.4011 11.5207 1.75232L11.5207 2.57583C11.5207 2.83017 11.705 3.05227 11.9689 3.11581C12.6096 3.27014 13.2239 3.50812 13.7946 3.82313C14.0294 3.95273 14.3285 3.91749 14.5213 3.73743L15.1465 3.15392C15.4164 2.90173 15.8492 2.90891 16.1116 3.15414L17.0168 3.99902C17.2797 4.24406 17.2868 4.64782 17.0166 4.89967L16.3916 5.48296C16.1987 5.66298 16.161 5.94204 16.2998 6.16117C16.6373 6.69379 16.8923 7.26709 17.0576 7.8651C17.1257 8.11134 17.3637 8.2834 17.6362 8.2834L18.5185 8.2834C18.8948 8.2834 19.201 8.56915 19.201 8.92038L19.201 10.1151C19.201 10.4663 18.8948 10.7521 18.5185 10.7521L17.6362 10.7521C17.3637 10.7521 17.1257 10.9241 17.0576 11.1703C16.8923 11.7684 16.6373 12.3417 16.2998 12.8743C16.161 13.0934 16.1987 13.3725 16.3916 13.5525L17.0168 14.136C17.2876 14.3883 17.2788 14.7922 17.0166 15.0367L16.1112 15.8816C15.8484 16.1272 15.4157 16.1331 15.1463 15.8813L14.5213 15.298C14.3284 15.118 14.0294 15.0827 13.7946 15.2123C13.2238 15.5273 12.6096 15.7653 11.9689 15.9196C11.705 15.9832 11.5206 16.2053 11.5206 16.4596L11.5206 17.2831C11.5206 17.6343 11.2144 17.92 10.8381 17.92L9.55802 17.92C9.18169 17.92 8.87547 17.6343 8.87547 17.2831L8.87547 16.4596C8.87547 16.2053 8.6911 15.9832 8.42723 15.9196Z" id="Shape" fill="#FFFFFF" fill-rule="evenodd" stroke="none" />
      <path d="M0 2.62072C0 4.06579 1.36061 5.24144 3.03309 5.24144C4.70556 5.24144 6.06617 4.06579 6.06617 2.62072C6.06617 1.17565 4.70556 0 3.03309 0C1.36061 0 0 1.17565 0 2.62072ZM0.816809 2.62072C0.816809 1.56481 1.811 0.705756 3.03309 0.705756C4.25517 0.705757 5.24936 1.56481 5.24936 2.62072C5.24936 3.67663 4.25514 4.53568 3.03309 4.53568C1.81103 4.53568 0.816809 3.67663 0.816809 2.62072Z" transform="translate(7.182478 6.919706)" id="Shape" fill="#FFFFFF" fill-rule="evenodd" stroke="none" />
    </g>
  </g>
</svg>